<svg viewBox="0 0 160 160" xmlns="http://www.w3.org/2000/svg">
  <defs>
    <linearGradient id="gC" x1="0" y1="0" x2="1" y2="1">
      <stop offset="0%" stop-color="#8B2F0A"/>
      <stop offset="100%" stop-color="#D4713A"/>
    </linearGradient>
  </defs>
  <rect width="160" height="160" rx="36" fill="url(#gC)"/>
  <g transform="translate(80, 78)">
    <path d="M-2,-36 L-2,20 C-2,20 -16,16 -34,18 L-34,-32 C-16,-34 -2,-36 -2,-36Z" fill="#fff" opacity="0.5"/>
    <path d="M2,-36 L2,20 C2,20 16,16 34,18 L34,-32 C16,-34 2,-36 2,-36Z" fill="#fff" opacity="0.75"/>
    <line x1="0" y1="-36" x2="0" y2="20" stroke="#fff" stroke-width="1.5" opacity="0.3"/>
    <line x1="8" y1="-22" x2="26" y2="-22" stroke="#8B2F0A" stroke-width="1.5" stroke-linecap="round" opacity="0.2"/>
    <line x1="8" y1="-14" x2="24" y2="-14" stroke="#8B2F0A" stroke-width="1.5" stroke-linecap="round" opacity="0.2"/>
    <line x1="8" y1="-6" x2="20" y2="-6" stroke="#8B2F0A" stroke-width="1.5" stroke-linecap="round" opacity="0.2"/>
    <rect x="7" y="-25" width="12" height="6" rx="1.5" fill="#FCD34D" opacity="0.4"/>
    <rect x="6" y="22" width="36" height="24" rx="8" fill="#fff" opacity="0.95"/>
    <path d="M14,46 L10,54 L22,46" fill="#fff" opacity="0.95"/>
    <circle cx="16" cy="34" r="3" fill="#D4713A" opacity="0.7"/>
    <circle cx="24" cy="34" r="3" fill="#D4713A" opacity="0.5"/>
    <circle cx="32" cy="34" r="3" fill="#D4713A" opacity="0.3"/>
  </g>
</svg>
