<svg viewBox="0 0 160 160" xmlns="http://www.w3.org/2000/svg">
  <defs>
    <linearGradient id="gJ" x1="0" y1="0" x2="0.8" y2="1">
      <stop offset="0%" stop-color="#0A0F1A"/>
      <stop offset="100%" stop-color="#162032"/>
    </linearGradient>
  </defs>
  <rect width="160" height="160" rx="36" fill="url(#gJ)"/>
  <rect width="160" height="160" rx="36" fill="none" stroke="#243044" stroke-width="1"/>
  <g transform="translate(80, 80)">
    <rect x="-40" y="-38" width="22" height="8" rx="2.5" fill="#BEF264" opacity="0.25"/>
    <rect x="-40" y="-26" width="22" height="8" rx="2.5" fill="#BEF264" opacity="0.25"/>
    <rect x="-11" y="-38" width="22" height="8" rx="2.5" fill="#BEF264" opacity="0.45"/>
    <rect x="-11" y="-26" width="22" height="8" rx="2.5" fill="#BEF264" opacity="0.45"/>
    <rect x="-11" y="-14" width="22" height="8" rx="2.5" fill="#BEF264" opacity="0.45"/>
    <rect x="18" y="-38" width="22" height="8" rx="2.5" fill="#BEF264" opacity="0.9"/>
    <rect x="-40" y="-48" width="22" height="5" rx="1.5" fill="#fff" opacity="0.1"/>
    <rect x="-11" y="-48" width="22" height="5" rx="1.5" fill="#fff" opacity="0.1"/>
    <rect x="18" y="-48" width="22" height="5" rx="1.5" fill="#fff" opacity="0.1"/>
    <rect x="4" y="-2" width="22" height="8" rx="2.5" fill="#BEF264" opacity="0.7" stroke="#BEF264" stroke-width="1" stroke-dasharray="3,2"/>
    <path d="M14,10 L14,18" stroke="#BEF264" stroke-width="1.5" fill="none" stroke-linecap="round" opacity="0.4"/>
    <path d="M28,2 L36,2" stroke="#BEF264" stroke-width="1.5" fill="none" stroke-linecap="round" opacity="0.4" stroke-dasharray="2,2"/>
    <g transform="translate(0, 32)">
      <circle cx="0" cy="0" r="14" fill="#BEF264" opacity="0.15"/>
      <path d="M-7,0 L-2,5 L7,-5" stroke="#BEF264" stroke-width="3" fill="none" stroke-linecap="round" stroke-linejoin="round" opacity="0.9"/>
    </g>
  </g>
</svg>
