<svg viewBox="0 0 160 160" xmlns="http://www.w3.org/2000/svg">
  <defs>
    <linearGradient id="gR" x1="0" y1="0" x2="1" y2="1">
      <stop offset="0%" stop-color="#0C4A61"/>
      <stop offset="100%" stop-color="#1496BB"/>
    </linearGradient>
  </defs>
  <rect width="160" height="160" rx="36" fill="url(#gR)"/>
  <g transform="translate(80, 80)">
    <path d="M-24,-42 L10,-42 L26,-26 L26,42 L-24,42 Z" fill="#fff" opacity="0.92"/>
    <path d="M10,-42 L10,-26 L26,-26" fill="#1496BB" opacity="0.25"/>
    <line x1="-14" y1="-24" x2="14" y2="-24" stroke="#0C4A61" stroke-width="2" stroke-linecap="round" opacity="0.2"/>
    <line x1="-14" y1="-14" x2="8" y2="-14" stroke="#0C4A61" stroke-width="2" stroke-linecap="round" opacity="0.2"/>
    <line x1="-14" y1="-4" x2="12" y2="-4" stroke="#0C4A61" stroke-width="2" stroke-linecap="round" opacity="0.2"/>
    <line x1="-14" y1="6" x2="6" y2="6" stroke="#0C4A61" stroke-width="2" stroke-linecap="round" opacity="0.2"/>
    <line x1="-28" y1="16" x2="30" y2="16" stroke="#FCD34D" stroke-width="2.5" stroke-linecap="round" opacity="0.8"/>
    <line x1="-28" y1="16" x2="30" y2="16" stroke="#FCD34D" stroke-width="6" stroke-linecap="round" opacity="0.15"/>
    <circle cx="-30" cy="-30" r="3" fill="#FCD34D" opacity="0.8"/>
    <circle cx="30" cy="-36" r="2.5" fill="#FCD34D" opacity="0.6"/>
    <circle cx="-32" cy="6" r="2" fill="#FCD34D" opacity="0.5"/>
    <line x1="-30" y1="-30" x2="-24" y2="-24" stroke="#FCD34D" stroke-width="1" opacity="0.4"/>
    <line x1="30" y1="-36" x2="26" y2="-26" stroke="#FCD34D" stroke-width="1" opacity="0.4"/>
    <circle cx="22" cy="34" r="10" fill="#059669"/>
    <path d="M17,34 L20,37 L27,30" stroke="#fff" stroke-width="2.5" fill="none" stroke-linecap="round" stroke-linejoin="round"/>
  </g>
</svg>
