<svg viewBox="0 0 160 160" xmlns="http://www.w3.org/2000/svg">
  <defs>
    <linearGradient id="gV" x1="0" y1="0" x2="1" y2="1">
      <stop offset="0%" stop-color="#047857"/>
      <stop offset="100%" stop-color="#34D399"/>
    </linearGradient>
  </defs>
  <rect width="160" height="160" rx="36" fill="url(#gV)"/>
  <g transform="translate(80, 80)">
    <path d="M-18,-42 C-6,-30 6,-22 18,-14 C30,-6 30,6 18,14 C6,22 -6,30 -18,42" stroke="#fff" stroke-width="3.5" fill="none" stroke-linecap="round" opacity="0.95"/>
    <path d="M18,-42 C6,-30 -6,-22 -18,-14 C-30,-6 -30,6 -18,14 C-6,22 6,30 18,42" stroke="#fff" stroke-width="3.5" fill="none" stroke-linecap="round" opacity="0.95"/>
    <line x1="-14" y1="-34" x2="14" y2="-34" stroke="#fff" stroke-width="2" stroke-linecap="round" opacity="0.4"/>
    <line x1="-8" y1="-22" x2="8" y2="-22" stroke="#fff" stroke-width="2" stroke-linecap="round" opacity="0.4"/>
    <line x1="-2" y1="-14" x2="2" y2="-14" stroke="#fff" stroke-width="2" stroke-linecap="round" opacity="0.4"/>
    <line x1="-2" y1="14" x2="2" y2="14" stroke="#fff" stroke-width="2" stroke-linecap="round" opacity="0.4"/>
    <line x1="-8" y1="22" x2="8" y2="22" stroke="#fff" stroke-width="2" stroke-linecap="round" opacity="0.4"/>
    <line x1="-14" y1="34" x2="14" y2="34" stroke="#fff" stroke-width="2" stroke-linecap="round" opacity="0.4"/>
    <circle cx="-18" cy="-42" r="4" fill="#FCD34D" opacity="0.9"/>
    <circle cx="18" cy="-42" r="4" fill="#FCD34D" opacity="0.9"/>
    <circle cx="-18" cy="42" r="4" fill="#FCD34D" opacity="0.9"/>
    <circle cx="18" cy="42" r="4" fill="#FCD34D" opacity="0.9"/>
    <circle cx="0" cy="0" r="5" fill="#FCD34D" opacity="0.7"/>
  </g>
</svg>
